<?xml version="1.0" encoding="utf-8"?>
<!-- Svg Vector Icons : http://www.onlinewebfonts.com/icon -->
<!DOCTYPE svg PUBLIC "-//W3C//DTD SVG 1.1//EN" "http://www.w3.org/Graphics/SVG/1.1/DTD/svg11.dtd">
<svg version="1.1" xmlns="http://www.w3.org/2000/svg" xmlns:xlink="http://www.w3.org/1999/xlink" x="0px" y="0px" viewBox="0 0 1000 1000" enable-background="new 0 0 1000 1000" xml:space="preserve">
<metadata> Svg Vector Icons : http://www.onlinewebfonts.com/icon </metadata>
<g><path fill="#ffffff" d="M377.5,331.6c-16.8,0-30.6,13.8-30.6,30.6v275.6c0,16.8,13.8,30.6,30.6,30.6s30.6-13.8,30.6-30.6V362.2C408.1,345.3,394.3,331.6,377.5,331.6z"/>
<path fill="#ffffff" d="M622.5,331.6c-16.8,0-30.6,13.8-30.6,30.6v275.6c0,16.8,13.8,30.6,30.6,30.6c16.8,0,30.6-13.8,30.6-30.6V362.2C653.1,345.3,639.3,331.6,622.5,331.6z"/>
<path fill="#ffffff"  d="M500,10c-130.2,0-254.2,50.5-346.1,143.9C60.5,245.8,10,369.8,10,500c0,130.2,50.5,254.2,143.9,346.1C245.8,937.9,369.8,990,500,990c130.2,0,254.2-50.5,346.1-143.9C937.9,754.2,990,630.2,990,500c0-130.2-50.5-254.2-143.9-346.1C754.2,60.5,630.2,10,500,10z M803.2,803.2C722,884.3,614.8,928.8,500,928.8c-114.8,0-222-44.4-303.2-125.6C115.7,722,71.3,614.8,71.3,500c0-114.8,44.4-222,125.6-303.2C278,115.7,385.2,71.3,500,71.3c114.8,0,222,44.4,303.2,125.6C884.3,278,928.8,385.2,928.8,500C928.8,614.8,884.3,722,803.2,803.2z"/></g>
</svg>